<svg width="32" height="32" viewBox="0 0 32 32" fill="none" xmlns="http://www.w3.org/2000/svg">
<rect width="32" height="32" rx="8" fill="url(#paint0_linear_289_506)"/>
<path d="M16.6134 20.0415L19.9048 16.7501H10.0834C9.62309 16.7501 9.25002 16.3769 9.25002 15.9167C9.25002 15.4565 9.62309 15.0834 10.0834 15.0834H19.9048L16.6134 11.7919C16.288 11.4665 16.288 10.9389 16.6134 10.6134C16.654 10.5727 16.6979 10.5371 16.7441 10.5066C17.0676 10.2931 17.5071 10.3287 17.7919 10.6134L22.5059 15.3275C22.8314 15.6529 22.8314 16.1805 22.5059 16.506L17.7919 21.22C17.5478 21.4641 17.19 21.5251 16.889 21.4031C16.7888 21.3624 16.6948 21.3014 16.6134 21.22C16.288 20.8946 16.288 20.367 16.6134 20.0415Z" fill="white"/>
<defs>
<linearGradient id="paint0_linear_289_506" x1="0" y1="16" x2="29.8182" y2="16" gradientUnits="userSpaceOnUse">
<stop stop-color="#0745B0"/>
<stop offset="0.51" stop-color="#1455C3"/>
<stop offset="1" stop-color="#2466D9"/>
</linearGradient>
</defs>
</svg>
