<svg width="40" height="40" viewBox="0 0 40 40" fill="none" xmlns="http://www.w3.org/2000/svg">
<rect width="40" height="40" rx="20" fill="#00468C"/>
<path d="M17.7284 25.4319C17.6919 25.5772 16.7778 29 11.75 29C11.5511 29 11.3603 28.921 11.2197 28.7804C11.079 28.6397 11 28.449 11 28.25C11 23.2222 14.4228 22.3082 14.5681 22.2716C14.7612 22.2234 14.9655 22.2538 15.1361 22.3562C15.3068 22.4586 15.4297 22.6246 15.478 22.8177C15.5262 23.0108 15.4958 23.2151 15.3933 23.3857C15.2909 23.5563 15.1249 23.6793 14.9319 23.7275C14.8475 23.751 12.83 24.3407 12.5356 27.4644C15.6594 27.17 16.25 25.1563 16.2744 25.0625C16.3241 24.8697 16.4484 24.7046 16.6199 24.6034C16.7914 24.5022 16.9961 24.4733 17.1889 24.523C17.3817 24.5727 17.5469 24.697 17.6481 24.8685C17.7492 25.04 17.7782 25.2447 17.7284 25.4375V25.4319ZM26.4472 19.1132L26 19.5604V25.0288C26.0011 25.2265 25.9629 25.4225 25.8876 25.6054C25.8122 25.7882 25.7013 25.9542 25.5612 26.0938L22.3437 29.3094C22.205 29.4492 22.0399 29.56 21.8581 29.6357C21.6763 29.7113 21.4813 29.7502 21.2844 29.75C21.1218 29.75 20.9604 29.7237 20.8062 29.6722C20.5416 29.5847 20.3067 29.4249 20.1281 29.2108C19.9495 28.9968 19.8343 28.737 19.7956 28.461L19.2922 24.8525L15.1475 20.7079L11.5409 20.2044C11.2645 20.1656 11.0044 20.0505 10.7898 19.872C10.5752 19.6934 10.4148 19.4586 10.3264 19.1938C10.238 18.929 10.2253 18.6448 10.2897 18.3732C10.354 18.1016 10.4929 17.8533 10.6906 17.6563L13.9062 14.4388C14.0458 14.2987 14.2118 14.1878 14.3947 14.1125C14.5775 14.0371 14.7735 13.9989 14.9712 14H20.4397L20.8869 13.5529C23.3881 11.0525 26.4022 10.9447 27.5816 11.015C27.9472 11.0373 28.2922 11.1926 28.5512 11.4516C28.8103 11.7107 28.9656 12.0556 28.9878 12.4213C29.0562 13.5979 28.9484 16.6119 26.4481 19.1132H26.4472ZM11.75 18.7194L15.2328 19.205L18.9397 15.5H14.9712L11.75 18.7194ZM16.5612 20L20 23.4388L25.3859 18.0529C26.1118 17.3319 26.6749 16.464 27.0374 15.5073C27.4 14.5507 27.5535 13.5275 27.4878 12.5066C26.4674 12.4433 25.4453 12.5985 24.4897 12.9618C23.534 13.325 22.6669 13.888 21.9462 14.6132L16.5612 20ZM24.5 21.0604L20.7941 24.7663L21.2816 28.25L24.5 25.0288V21.0604Z" fill="white"/>
</svg>
