<svg width="18" height="19" viewBox="0 0 18 19" fill="none" xmlns="http://www.w3.org/2000/svg">
<path d="M1.12497 9.25H16.875C16.9744 9.25 17.0698 9.21049 17.1401 9.14017C17.2105 9.06984 17.25 8.97446 17.25 8.875V6.25C17.2501 6.15148 17.2307 6.05391 17.1931 5.96286C17.1554 5.87182 17.1002 5.78908 17.0306 5.71938L11.7806 0.469375C11.7109 0.399749 11.6282 0.344539 11.5371 0.306898C11.4461 0.269257 11.3485 0.249923 11.25 0.25H2.24997C1.85215 0.25 1.47062 0.408035 1.18931 0.68934C0.90801 0.970645 0.749975 1.35218 0.749975 1.75V8.875C0.749975 8.97446 0.789484 9.06984 0.85981 9.14017C0.930136 9.21049 1.02552 9.25 1.12497 9.25ZM11.25 2.125L15.375 6.25H11.25V2.125ZM18 12.2997C17.9832 12.4925 17.8942 12.6718 17.7507 12.8017C17.6073 12.9315 17.42 13.0024 17.2265 13H15V14.5H16.4747C16.6682 14.4974 16.8556 14.5682 16.9991 14.6981C17.1426 14.828 17.2315 15.0075 17.2481 15.2003C17.2549 15.3029 17.2406 15.4058 17.2059 15.5026C17.1713 15.5994 17.1171 15.6881 17.0468 15.7631C16.9765 15.8381 16.8915 15.8978 16.7971 15.9385C16.7027 15.9793 16.6009 16.0002 16.4981 16H15V17.4747C15.0026 17.6682 14.9318 17.8556 14.8019 17.9991C14.672 18.1426 14.4925 18.2316 14.2997 18.2481C14.1971 18.2549 14.0942 18.2406 13.9974 18.206C13.9006 18.1713 13.8119 18.1172 13.7369 18.0468C13.6619 17.9765 13.6022 17.8915 13.5614 17.7971C13.5207 17.7027 13.4997 17.6009 13.5 17.4981V12.25C13.5 12.0511 13.579 11.8603 13.7196 11.7197C13.8603 11.579 14.0511 11.5 14.25 11.5H17.25C17.3528 11.4998 17.4546 11.5207 17.5489 11.5615C17.6433 11.6022 17.7283 11.6619 17.7987 11.7369C17.869 11.8119 17.9232 11.9006 17.9578 11.9974C17.9924 12.0942 18.0068 12.1971 18 12.2997ZM2.99997 11.5H1.49997C1.30106 11.5 1.1103 11.579 0.969645 11.7197C0.828993 11.8603 0.749975 12.0511 0.749975 12.25V17.4747C0.746891 17.6686 0.817452 17.8564 0.947422 18.0003C1.07739 18.1442 1.2571 18.2334 1.45029 18.25C1.55288 18.2568 1.65577 18.2425 1.75258 18.2078C1.84939 18.1732 1.93805 18.119 2.01304 18.0487C2.08803 17.9784 2.14777 17.8934 2.18853 17.799C2.22928 17.7046 2.2502 17.6028 2.24997 17.5V16.75H2.94373C4.37247 16.75 5.58185 15.6325 5.62404 14.2047C5.63471 13.8534 5.57473 13.5035 5.44765 13.1759C5.32058 12.8482 5.129 12.5494 4.88427 12.2971C4.63955 12.0449 4.34666 11.8444 4.02298 11.7074C3.6993 11.5705 3.35142 11.5 2.99997 11.5ZM2.96716 15.25H2.24997V13H2.99997C3.15733 12.9993 3.31308 13.0315 3.45718 13.0948C3.60128 13.158 3.73051 13.2507 3.83653 13.367C3.94256 13.4832 4.02301 13.6205 4.07269 13.7698C4.12238 13.9191 4.14019 14.0771 4.12497 14.2338C4.09224 14.5165 3.95567 14.777 3.74174 14.9648C3.52781 15.1526 3.25178 15.2542 2.96716 15.25ZM8.99998 11.5H7.49998C7.30106 11.5 7.1103 11.579 6.96965 11.7197C6.82899 11.8603 6.74998 12.0511 6.74998 12.25V17.5C6.74998 17.6989 6.82899 17.8897 6.96965 18.0303C7.1103 18.171 7.30106 18.25 7.49998 18.25H8.93622C10.7794 18.25 12.3309 16.7987 12.374 14.9566C12.3849 14.5066 12.3057 14.059 12.141 13.6402C11.9763 13.2213 11.7295 12.8396 11.4152 12.5175C11.1008 12.1954 10.7251 11.9395 10.3104 11.7648C9.89559 11.59 9.45006 11.5 8.99998 11.5ZM8.95404 16.75H8.24998V13H8.99998C9.2524 12.9998 9.50226 13.0506 9.73458 13.1493C9.9669 13.248 10.1769 13.3926 10.352 13.5744C10.5271 13.7563 10.6636 13.9716 10.7535 14.2075C10.8434 14.4434 10.8847 14.695 10.875 14.9472C10.8356 15.9616 9.96935 16.75 8.95404 16.75Z" fill="white"/>
</svg>
