<svg width="26" height="24" viewBox="0 0 26 24" fill="none" xmlns="http://www.w3.org/2000/svg">
<path d="M25.825 1.19125C25.6711 0.835641 25.416 0.533122 25.0915 0.32132C24.767 0.109518 24.3875 -0.00221999 24 1.98822e-06H1.99997C1.61288 0.000764687 1.23433 0.11384 0.910248 0.32551C0.586162 0.537181 0.330465 0.83835 0.174176 1.19248C0.0178864 1.54661 -0.0322785 1.93849 0.0297666 2.32057C0.0918116 2.70265 0.2634 3.05852 0.523717 3.345L0.533717 3.35625L8.99997 12.3963V22C8.99988 22.362 9.09803 22.7172 9.28396 23.0278C9.46989 23.3383 9.73661 23.5926 10.0557 23.7635C10.3748 23.9344 10.7343 24.0155 11.0958 23.9982C11.4574 23.9808 11.8075 23.8657 12.1087 23.665L16.1087 20.9975C16.3829 20.8149 16.6078 20.5673 16.7632 20.2768C16.9187 19.9864 17 19.662 17 19.3325V12.3963L25.4675 3.35625L25.4775 3.345C25.7405 3.05983 25.9138 2.70349 25.9756 2.32046C26.0374 1.93744 25.985 1.54469 25.825 1.19125ZM15.5425 11.035C15.1951 11.4032 15.0011 11.89 15 12.3963V19.3325L11 22V12.3963C11.0011 11.8882 10.8079 11.3989 10.46 11.0288L1.99997 2H24L15.5425 11.035Z" fill="#555555"/>
</svg>
