<svg width="25" height="19" viewBox="0 0 25 19" fill="none" xmlns="http://www.w3.org/2000/svg">
<path d="M25.0001 9.99995C25.0001 10.2652 24.8947 10.5195 24.7072 10.7071C24.5196 10.8946 24.2653 10.9999 24.0001 10.9999H11.0001C10.7348 10.9999 10.4805 10.8946 10.2929 10.7071C10.1054 10.5195 10.0001 10.2652 10.0001 9.99995C10.0001 9.73473 10.1054 9.48038 10.2929 9.29284C10.4805 9.1053 10.7348 8.99995 11.0001 8.99995H24.0001C24.2653 8.99995 24.5196 9.1053 24.7072 9.29284C24.8947 9.48038 25.0001 9.73473 25.0001 9.99995ZM11.0001 2.99995H24.0001C24.2653 2.99995 24.5196 2.89459 24.7072 2.70705C24.8947 2.51952 25.0001 2.26516 25.0001 1.99995C25.0001 1.73473 24.8947 1.48038 24.7072 1.29284C24.5196 1.1053 24.2653 0.999946 24.0001 0.999946H11.0001C10.7348 0.999946 10.4805 1.1053 10.2929 1.29284C10.1054 1.48038 10.0001 1.73473 10.0001 1.99995C10.0001 2.26516 10.1054 2.51952 10.2929 2.70705C10.4805 2.89459 10.7348 2.99995 11.0001 2.99995ZM24.0001 16.9999H2.00005C1.73484 16.9999 1.48048 17.1053 1.29295 17.2928C1.10541 17.4804 1.00005 17.7347 1.00005 17.9999C1.00005 18.2652 1.10541 18.5195 1.29295 18.7071C1.48048 18.8946 1.73484 18.9999 2.00005 18.9999H24.0001C24.2653 18.9999 24.5196 18.8946 24.7072 18.7071C24.8947 18.5195 25.0001 18.2652 25.0001 17.9999C25.0001 17.7347 24.8947 17.4804 24.7072 17.2928C24.5196 17.1053 24.2653 16.9999 24.0001 16.9999ZM6.00005 11.9999C6.19795 12.0001 6.39144 11.9415 6.55604 11.8317C6.72063 11.7218 6.84892 11.5656 6.92468 11.3827C7.00043 11.1999 7.02023 10.9987 6.98158 10.8046C6.94293 10.6106 6.84757 10.4323 6.70755 10.2924L2.4138 5.99995L6.70755 1.70745C6.8952 1.5198 7.00061 1.26531 7.00061 0.999946C7.00061 0.734582 6.8952 0.480086 6.70755 0.292446C6.51991 0.104805 6.26542 -0.00061035 6.00005 -0.000610352C5.73469 -0.000610354 5.48019 0.104805 5.29255 0.292446L0.292554 5.29245C0.199578 5.38532 0.125819 5.49561 0.0754943 5.61701C0.02517 5.7384 -0.000732422 5.86853 -0.000732422 5.99995C-0.000732422 6.13136 0.02517 6.26149 0.0754943 6.38289C0.125819 6.50428 0.199578 6.61457 0.292554 6.70745L5.29255 11.7074C5.38549 11.8003 5.49581 11.8739 5.6172 11.9241C5.7386 11.9743 5.86869 12 6.00005 11.9999Z" fill="#444444"/>
</svg>
